<svg xmlns="http://www.w3.org/2000/svg" viewBox="0 0 70 60">
  <defs>
    <linearGradient id="cloudflare-pages-logo-gradient" x1="118.18%" x2="10.8%" y1="-2.39%" y2="101.62%">
      <stop offset="0%" stop-color="#fbb743"></stop>
      <stop offset="100%" stop-color="#f28333"></stop>
      <stop offset="100%" stop-color="#ea6b00"></stop>
    </linearGradient>
  </defs>
  <path fill="#b7bbbd" d="M45.94 2H60l2 2v44l-2 2H40.84l.97-1.5h17.57l1.12-1.12V4.62l-1.12-1.12H47.26l-1.43 7.39H44.3l1.37-7.46L45.94 2zM12 50l-2-2V4l2-2h19.9l-1.01 1.5H12.62l-1.12 1.12v42.76l1.12 1.12H27.1l-.24 1.5H12zm3-5h8.5l-.3 1.5H14l-.5-.5v-9l1.5 3v5zm34 0l1.5 1.5H43l1-1.5h5z"></path>
  <path fill="url(#cloudflare-pages-logo-gradient)" d="M32.67 32H19l-1.66-3.12 23-34 3.62 1.5L39.42 20H53l1.68 3.09-22 34-3.66-1.4L32.67 32zM15.5 9a1.5 1.5 0 110-3 1.5 1.5 0 010 3zm4 0a1.5 1.5 0 110-3 1.5 1.5 0 010 3zm4 0a1.5 1.5 0 110-3 1.5 1.5 0 010 3z"></path>
</svg>