<svg width="340" height="340" viewBox="0 0 340 340" fill="none" xmlns="http://www.w3.org/2000/svg">
<path fill-rule="evenodd" clip-rule="evenodd" d="M187.324 180C183.866 185.978 177.403 190 170 190C158.954 190 150 181.046 150 170C150 158.954 158.954 150 170 150C177.403 150 183.866 154.022 187.324 160H219C214.367 137.178 194.19 120 170 120C142.386 120 120 142.386 120 170C120 197.614 142.386 220 170 220C194.19 220 214.367 202.822 219 180H187.324Z" fill="black"/>
<path fill-rule="evenodd" clip-rule="evenodd" d="M170 310C247.32 310 310 247.32 310 170C310 156.75 308.159 143.93 304.72 131.781L332.98 121.496C337.548 136.866 340 153.147 340 170C340 263.888 263.888 340 170 340C100.651 340 41.0002 298.475 14.5564 238.933L42.8355 228.64C65.0212 276.671 113.618 310 170 310ZM35.7756 209.926C32.0177 197.274 30 183.872 30 170C30 92.6801 92.6801 30 170 30C227.013 30 276.067 64.0801 297.9 112.98L326.157 102.696C300.084 42.2835 239.98 0 170 0C76.1116 0 0 76.1116 0 170C0 187.476 2.63709 204.337 7.53504 220.205L35.7756 209.926Z" fill="black"/>
<path fill-rule="evenodd" clip-rule="evenodd" d="M140.812 95.4918C149.855 91.9465 159.7 90 170 90C214.183 90 250 125.817 250 170C250 195.696 237.885 218.563 219.055 233.2L234.159 259.361C261.921 239.393 280 206.808 280 170C280 109.249 230.751 60 170 60C154.234 60 139.242 63.317 125.685 69.2912L140.812 95.4918ZM108.192 78.9934C79.1039 98.7874 60 132.163 60 170C60 230.751 109.249 280 170 280C186.786 280 202.694 276.24 216.928 269.516L201.854 243.407C192.093 247.648 181.321 250 170 250C125.817 250 90 214.183 90 170C90 143.27 103.11 119.602 123.25 105.074L108.192 78.9934Z" fill="black"/>
</svg>
